<?xml version="1.0" encoding="utf-8"?>
<!-- Generator: Adobe Illustrator 23.0.1, SVG Export Plug-In . SVG Version: 6.00 Build 0)  -->
<svg version="1.1" id="Layer_1" xmlns="http://www.w3.org/2000/svg" xmlns:xlink="http://www.w3.org/1999/xlink" x="0px" y="0px"
	 viewBox="0 0 512 512" style="enable-background:new 0 0 512 512;" xml:space="preserve">
<style type="text/css">
	.st0{fill:#F1F2F2;}
	.st1{fill:#51312C;}
	.st2{fill:#3A6A76;}
</style>
<line class="st0" x1="512" y1="512" x2="0" y2="512"/>
<g>
	<polygon class="st1" points="157.55,300.7 136.28,353.96 189.54,332.69 	"/>
	
		<rect x="153.97" y="221.9" transform="matrix(0.7071 -0.7071 0.7071 0.7071 -104.6593 243.8262)" class="st2" width="176.04" height="52.7"/>
	<path class="st1" d="M357.51,170c7.99-7.99,8.91-20.03,2.05-26.89l-12.42-12.42c-3.09-3.09-7.23-4.6-11.57-4.6
		c-5.31,0-10.93,2.26-15.32,6.65l-14.82,14.82l37.27,37.27l-6.21,6.21l-37.26-37.27l-7.41,7.41l37.27,37.27L357.51,170z"/>
	<rect x="128" y="368" class="st1" width="256" height="8"/>
</g>
</svg>
